<svg width="24" height="25" viewBox="0 0 24 25" fill="none" xmlns="http://www.w3.org/2000/svg">
<path d="M20 10.5C20 10.2348 19.8946 9.98043 19.7071 9.79289C19.5196 9.60536 19.2652 9.5 19 9.5C18.7348 9.5 18.4804 9.60536 18.2929 9.79289C18.1053 9.98043 18 10.2348 18 10.5H20ZM5.99999 10.5C5.99999 10.2348 5.89463 9.98043 5.7071 9.79289C5.51956 9.60536 5.26521 9.5 4.99999 9.5C4.73477 9.5 4.48042 9.60536 4.29288 9.79289C4.10535 9.98043 3.99999 10.2348 3.99999 10.5H5.99999ZM20.293 13.207C20.4816 13.3892 20.7342 13.49 20.9964 13.4877C21.2586 13.4854 21.5094 13.3802 21.6948 13.1948C21.8802 13.0094 21.9854 12.7586 21.9877 12.4964C21.9899 12.2342 21.8891 11.9816 21.707 11.793L20.293 13.207ZM12 3.5L12.707 2.793C12.5195 2.60553 12.2652 2.50021 12 2.50021C11.7348 2.50021 11.4805 2.60553 11.293 2.793L12 3.5ZM2.29299 11.793C2.19748 11.8852 2.1213 11.9956 2.06889 12.1176C2.01648 12.2396 1.98889 12.3708 1.98774 12.5036C1.98659 12.6364 2.01189 12.7681 2.06217 12.891C2.11245 13.0139 2.1867 13.1255 2.28059 13.2194C2.37449 13.3133 2.48614 13.3875 2.60904 13.4378C2.73193 13.4881 2.86361 13.5134 2.99639 13.5123C3.12917 13.5111 3.26039 13.4835 3.38239 13.4311C3.5044 13.3787 3.61474 13.3025 3.70699 13.207L2.29299 11.793ZM6.99999 22.5H17V20.5H6.99999V22.5ZM20 19.5V10.5H18V19.5H20ZM5.99999 19.5V10.5H3.99999V19.5H5.99999ZM21.707 11.793L12.707 2.793L11.293 4.207L20.293 13.207L21.707 11.793ZM11.293 2.793L2.29299 11.793L3.70699 13.207L12.707 4.207L11.293 2.793ZM17 22.5C17.7956 22.5 18.5587 22.1839 19.1213 21.6213C19.6839 21.0587 20 20.2956 20 19.5H18C18 19.7652 17.8946 20.0196 17.7071 20.2071C17.5196 20.3946 17.2652 20.5 17 20.5V22.5ZM6.99999 20.5C6.73477 20.5 6.48042 20.3946 6.29288 20.2071C6.10535 20.0196 5.99999 19.7652 5.99999 19.5H3.99999C3.99999 20.2956 4.31606 21.0587 4.87867 21.6213C5.44128 22.1839 6.20434 22.5 6.99999 22.5V20.5Z" fill="#EDEAEA"/>
</svg>
