<svg width="24" height="25" viewBox="0 0 24 25" fill="none" xmlns="http://www.w3.org/2000/svg">
<path d="M21.71 20.79L18 17.11C19.4401 15.3144 20.1375 13.0353 19.9488 10.7413C19.7601 8.4473 18.6997 6.31278 16.9855 4.77664C15.2714 3.2405 13.0338 2.41951 10.7329 2.48247C8.43204 2.54543 6.24273 3.48756 4.61515 5.11514C2.98757 6.74272 2.04543 8.93203 1.98247 11.2329C1.91951 13.5338 2.74051 15.7714 4.27665 17.4855C5.81279 19.1997 7.94731 20.2601 10.2413 20.4488C12.5353 20.6375 14.8144 19.9401 16.61 18.5L20.29 22.18C20.383 22.2737 20.4936 22.3481 20.6154 22.3989C20.7373 22.4497 20.868 22.4758 21 22.4758C21.132 22.4758 21.2627 22.4497 21.3846 22.3989C21.5064 22.3481 21.617 22.2737 21.71 22.18C21.8902 21.9935 21.991 21.7443 21.991 21.485C21.991 21.2257 21.8902 20.9765 21.71 20.79ZM11 18.5C9.61553 18.5 8.26216 18.0895 7.11101 17.3203C5.95987 16.5511 5.06266 15.4579 4.53285 14.1788C4.00303 12.8997 3.86441 11.4922 4.13451 10.1344C4.4046 8.7765 5.07129 7.52922 6.05026 6.55025C7.02922 5.57128 8.2765 4.9046 9.63437 4.6345C10.9922 4.3644 12.3997 4.50303 13.6788 5.03284C14.9579 5.56265 16.0511 6.45986 16.8203 7.611C17.5895 8.76215 18 10.1155 18 11.5C18 13.3565 17.2625 15.137 15.9498 16.4497C14.637 17.7625 12.8565 18.5 11 18.5Z" fill="#EDEAEA"/>
</svg>
